<?xml version="1.0" standalone="no"?>
<!DOCTYPE svg PUBLIC "-//W3C//DTD SVG 20010904//EN"
 "http://www.w3.org/TR/2001/REC-SVG-20010904/DTD/svg10.dtd">
<svg version="1.0" xmlns="http://www.w3.org/2000/svg"
 width="271.000000pt" height="271.000000pt" viewBox="0 0 271.000000 271.000000"
 preserveAspectRatio="xMidYMid meet">
<metadata>
Created by potrace 1.14, written by Peter Selinger 2001-2017
</metadata>
<g transform="translate(0.000000,271.000000) scale(0.100000,-0.100000)"
fill="#000000" stroke="none">
<path d="M1310 2463 c-111 -86 -234 -125 -380 -121 -49 2 -90 6 -90 10 0 4 -7
5 -15 1 -19 -7 -136 35 -150 54 -8 11 -30 -7 -108 -85 l-97 -99 29 -79 c16
-43 41 -133 56 -199 25 -108 27 -132 21 -240 -6 -121 -16 -175 -77 -405 -30
-117 -31 -128 -20 -185 27 -130 113 -237 247 -307 38 -20 136 -59 218 -88 171
-59 218 -81 334 -156 l83 -54 29 20 c62 44 163 96 345 177 215 95 300 142 371
206 57 52 108 136 97 163 -3 10 -2 15 3 12 18 -12 -4 166 -30 247 -63 192 -94
382 -81 498 10 86 37 207 45 202 5 -3 6 5 2 17 -4 16 -2 19 8 13 10 -6 12 -4
7 8 -4 10 -2 17 4 17 6 0 8 8 5 17 -4 10 -4 14 0 10 4 -4 17 15 29 41 l22 47
-68 70 c-77 80 -109 119 -109 133 0 5 -32 -3 -71 -19 -38 -16 -98 -33 -132
-39 -90 -16 -240 -7 -306 19 -68 25 -160 86 -169 110 -6 17 -11 15 -52 -16z
m-410 -258 c11 -13 7 -15 -25 -15 -32 0 -36 2 -25 15 7 8 18 15 25 15 7 0 18
-7 25 -15z m303 3 c4 -10 8 -9 16 2 5 8 13 11 17 7 12 -12 -23 -40 -40 -34 -9
4 -16 13 -16 22 0 18 16 20 23 3z m353 -14 c-18 -18 -26 -18 -26 0 0 15 20 26
33 19 4 -2 1 -11 -7 -19z m-916 -48 c0 -13 6 -28 13 -34 9 -8 12 -3 12 21 0
29 3 32 30 32 23 0 31 -6 36 -25 7 -24 10 -22 13 9 0 8 7 16 14 18 8 3 12 -9
12 -41 0 -25 -4 -46 -10 -46 -5 0 -10 8 -10 18 -1 16 -1 16 -11 0 -15 -27 -29
-21 -29 11 0 17 -4 33 -10 36 -6 4 -10 -8 -10 -29 0 -37 -15 -47 -38 -24 -9 9
-12 9 -12 0 0 -15 -26 -16 -35 -2 -4 6 -2 17 4 23 5 7 8 23 4 35 -4 16 -1 22
11 22 10 0 16 -9 16 -24z m198 12 c9 -9 12 -9 12 1 0 8 10 11 28 9 24 -3 27
-7 30 -45 2 -33 0 -43 -12 -43 -19 0 -30 17 -16 25 13 8 13 45 1 45 -27 0 -41
-15 -41 -41 0 -16 -4 -29 -10 -29 -5 0 -10 16 -10 36 0 31 -3 35 -20 29 -11
-3 -20 -2 -20 3 0 23 38 30 58 10z m111 -10 l8 -22 6 23 c9 36 32 19 35 -27 2
-33 0 -42 -12 -42 -10 0 -17 9 -17 23 l-2 22 -4 -22 c-2 -13 -11 -23 -19 -23
-8 0 -14 10 -14 23 0 12 -3 32 -6 45 -8 29 14 30 25 0z m86 -19 c-5 -31 -3
-40 7 -37 7 3 14 20 16 40 3 33 5 35 43 36 l39 2 0 -45 c0 -25 -4 -45 -10 -45
-5 0 -10 16 -10 35 0 19 -3 35 -7 35 -18 -1 -31 -16 -34 -40 -3 -20 -11 -26
-36 -28 -33 -3 -33 -3 -33 42 0 35 4 46 15 46 13 0 15 -8 10 -41z m193 -6 c2
-34 0 -43 -12 -43 -9 0 -16 9 -16 20 0 24 -15 27 -24 4 -3 -8 -2 -12 4 -9 6 3
10 1 10 -5 0 -6 -8 -10 -17 -8 -12 2 -18 13 -19 33 -1 47 6 56 40 53 29 -3 31
-6 34 -45z m37 7 c-4 -25 -2 -40 5 -40 5 0 11 8 11 18 1 9 2 22 4 27 1 6 3 15
3 21 1 6 14 12 28 12 27 0 29 -3 38 -55 4 -25 2 -33 -9 -33 -10 0 -15 10 -15
29 0 42 -18 48 -22 9 -3 -29 -7 -33 -35 -36 -33 -3 -33 -3 -33 42 0 35 4 46
15 46 13 0 15 -8 10 -40z m130 12 c2 -26 14 -42 16 -21 1 8 2 21 3 29 1 10 12
15 31 15 28 0 30 -3 33 -42 l3 -43 -55 1 c-60 2 -66 8 -58 57 5 36 24 39 27 4z
m155 16 c0 -4 -10 -9 -22 -9 l-23 -2 23 -4 c17 -3 22 -11 22 -34 0 -20 -5 -29
-16 -29 -12 0 -15 6 -10 25 5 20 3 25 -14 25 -22 0 -23 1 -14 24 6 16 54 19
54 4z m41 -10 l0 -23 11 23 c19 38 38 27 38 -23 0 -51 -19 -63 -21 -12 l-1 32
-10 -32 c-12 -38 -38 -44 -38 -10 0 12 -3 32 -6 45 -5 16 -2 22 10 22 10 0 16
-9 17 -22z m127 -25 c2 -26 -1 -43 -7 -43 -6 0 -11 16 -11 35 0 19 -4 35 -9
35 -11 0 -21 -25 -21 -51 0 -10 -4 -19 -10 -19 -11 0 -14 73 -3 84 4 4 19 6
33 4 22 -3 25 -8 28 -45z m72 35 c0 -4 -10 -9 -22 -9 l-23 -2 23 -4 c17 -3 22
-11 22 -34 0 -20 -5 -29 -16 -29 -12 0 -15 6 -10 25 5 20 3 25 -14 25 -22 0
-23 1 -14 24 6 16 54 19 54 4z m65 -34 c0 -32 -4 -40 -21 -42 -22 -3 -34 19
-34 62 0 27 11 13 21 -26 l9 -33 -4 37 c-5 38 1 51 18 45 6 -2 11 -21 11 -43z
m35 24 c0 -13 3 -33 6 -45 5 -17 2 -23 -10 -23 -12 0 -16 10 -16 45 0 25 5 45
10 45 6 0 10 -10 10 -22z m51 -5 c12 -32 9 -55 -8 -61 -9 -2 -13 7 -13 27 0
16 -5 33 -10 36 -6 4 -8 11 -5 16 11 17 25 9 36 -18z m89 7 c8 -12 10 -11 11
5 1 17 2 16 9 -5 8 -24 8 -24 9 -2 2 42 21 22 21 -23 0 -33 -4 -45 -15 -45 -9
0 -15 9 -16 23 l0 22 -9 -22 c-13 -33 -30 -28 -30 7 0 17 -4 30 -10 30 -5 0
-10 -13 -10 -30 0 -44 -26 -39 -33 7 -4 20 -4 39 -2 43 8 13 66 5 75 -10z
m-240 -100 c0 -11 -4 -20 -10 -20 -5 0 -10 2 -10 4 0 2 -3 11 -6 20 -4 11 -1
16 10 16 9 0 16 -8 16 -20z m-937 -117 c56 -26 117 -55 135 -66 l32 -19 35 30
c94 83 191 116 323 110 81 -4 108 -9 163 -35 36 -17 84 -47 106 -67 l41 -36
133 65 c135 65 214 91 225 74 11 -18 -100 -128 -220 -219 l-54 -41 20 -62 c23
-72 26 -182 8 -245 -7 -23 -11 -43 -9 -45 163 -120 279 -231 261 -249 -14 -14
-111 19 -235 80 l-97 48 -56 -54 c-82 -80 -165 -115 -281 -120 -73 -4 -106 0
-161 17 -71 21 -173 87 -208 134 l-19 24 -110 -54 c-131 -64 -212 -90 -228
-74 -9 9 9 31 69 89 45 42 107 95 138 117 49 34 56 43 51 65 -22 100 -14 234
19 311 5 12 -14 33 -76 81 -95 75 -202 183 -194 197 10 15 81 -6 189 -56z
m991 -813 c15 -30 9 -39 -11 -19 -7 7 -19 9 -29 5 -15 -6 -16 -8 0 -24 9 -10
16 -23 16 -28 -1 -5 -10 2 -21 15 -11 13 -22 21 -26 17 -3 -3 2 -15 12 -26 10
-11 16 -22 13 -25 -3 -3 -13 4 -22 14 -11 12 -24 17 -34 13 -14 -5 -12 -7 8
-12 30 -7 33 -34 5 -37 -11 -2 -14 0 -7 3 19 9 14 20 -8 20 -23 0 -26 -16 -7
-35 8 -10 8 -12 0 -7 -6 3 -24 -6 -39 -21 l-27 -27 -14 27 c-18 35 -21 34 -15
-3 2 -16 0 -30 -5 -30 -5 0 -9 15 -10 34 -1 30 4 36 36 50 20 9 39 17 43 17 4
0 28 19 54 44 26 24 53 41 61 38 9 -4 11 0 7 11 -11 28 4 17 20 -14z m-940 5
c-5 -11 -2 -13 12 -8 11 4 15 3 11 -4 -4 -6 3 -13 14 -16 16 -4 20 -11 15 -24
-6 -14 -4 -15 4 -6 9 8 21 5 47 -13 20 -13 40 -24 44 -24 5 0 6 -7 3 -15 -4
-8 -2 -15 4 -15 6 0 13 6 15 13 4 8 6 7 6 -4 1 -8 -6 -24 -14 -35 -14 -18 -14
-18 -15 0 0 15 -3 16 -15 6 -17 -14 -19 -7 -5 20 6 11 6 21 1 25 -5 3 -12 -4
-16 -15 -3 -11 -11 -20 -16 -20 -6 0 -5 8 1 21 16 30 6 34 -19 8 -17 -18 -21
-20 -21 -6 0 9 8 20 17 26 10 5 15 13 11 17 -4 4 -17 -4 -29 -17 -13 -15 -19
-18 -16 -8 4 13 1 15 -14 12 -24 -7 -36 21 -18 45 10 12 7 12 -10 -3 l-24 -20
5 28 c5 24 3 26 -11 15 -10 -8 -9 -5 3 10 22 25 38 29 30 7z m234 -134 c9 -5
11 -18 7 -37 l-6 -29 18 28 c24 37 33 34 33 -9 0 -28 -3 -34 -12 -27 -7 5 -26
10 -41 11 -42 3 -47 9 -35 42 11 32 15 35 36 21z m482 -23 c0 -6 -7 -5 -15 2
-14 11 -14 10 -6 -13 8 -20 7 -27 -6 -31 -8 -4 -23 -1 -31 6 -13 11 -15 10 -9
-5 4 -11 3 -16 -4 -12 -5 4 -17 1 -25 -6 -17 -14 -28 -5 -39 29 -4 13 -2 22 4
22 6 0 11 -9 11 -19 0 -11 5 -23 11 -27 8 -5 10 3 7 24 -5 36 9 46 35 24 16
-15 17 -14 11 3 -5 12 -4 16 3 12 6 -4 14 0 17 9 5 13 9 14 21 4 8 -7 15 -17
15 -22z m-384 -61 c-2 -7 -8 -1 -12 12 -7 23 -8 24 -15 5 -7 -16 -8 -16 -8 7
-1 14 2 29 6 33 9 9 36 -42 29 -57z m61 41 c7 -6 13 -7 13 -2 0 5 5 2 10 -6 6
-10 10 -11 10 -2 0 26 15 10 16 -18 1 -28 -15 -45 -17 -17 0 10 -2 10 -6 0 -2
-7 -18 -13 -34 -13 -22 0 -32 6 -39 26 -6 14 -10 29 -10 33 0 11 43 11 57 -1z
m151 -5 c0 -10 3 -27 6 -38 8 -20 7 -20 -8 -1 -14 17 -16 18 -16 3 0 -19 -20
-24 -21 -4 0 10 -2 10 -6 0 -7 -18 -40 -16 -47 2 -3 8 -3 22 0 30 7 18 44 20
45 3 0 -9 2 -9 6 1 5 11 7 11 14 0 6 -11 9 -10 15 4 8 22 13 22 12 0z"/>
<path d="M1178 2143 c7 -3 16 -2 19 1 4 3 -2 6 -13 5 -11 0 -14 -3 -6 -6z"/>
<path d="M1430 2140 c0 -5 5 -10 11 -10 6 0 8 -9 4 -20 -4 -11 -2 -20 4 -20 6
0 11 14 11 30 0 20 -5 30 -15 30 -8 0 -15 -4 -15 -10z"/>
<path d="M695 1970 c-8 -13 174 -174 242 -213 7 -5 24 10 43 38 l31 45 -131
64 c-130 63 -176 80 -185 66z"/>
<path d="M1945 1956 c-33 -13 -101 -44 -152 -70 l-92 -46 27 -45 c15 -24 31
-45 36 -45 22 0 256 202 256 222 0 11 -8 10 -75 -16z"/>
<path d="M1410 1938 c0 -12 3 -17 8 -12 4 5 11 12 15 15 5 3 2 9 -7 12 -12 5
-16 0 -16 -15z"/>
<path d="M1464 1910 c9 -13 16 -43 16 -65 l0 -41 75 -18 75 -18 2 -196 2 -197
6 190 c4 160 7 190 20 190 12 0 16 -21 21 -110 l5 -110 2 92 c1 50 5 99 8 107
7 19 -34 39 -136 63 l-70 17 0 37 c0 23 -8 46 -21 60 l-21 24 16 -25z"/>
<path d="M1411 1882 c0 -8 -21 -33 -45 -56 -42 -42 -44 -42 -72 -28 -48 25
-144 11 -212 -31 l-57 -35 -3 -232 -2 -232 27 6 c16 3 54 8 86 12 58 6 65 2
58 -39 -1 -5 3 -6 8 -3 10 7 9 25 -2 44 -5 7 -3 12 4 12 7 0 10 2 8 4 -2 2
-40 -2 -85 -8 l-81 -12 -7 104 c-9 161 -7 342 4 342 6 0 10 -77 10 -210 l0
-210 23 1 c16 1 18 2 5 6 -16 4 -18 23 -18 218 l0 213 47 23 c60 29 137 36
185 16 l36 -15 47 44 c29 29 45 51 42 62 -3 9 -5 11 -6 4z"/>
<path d="M1420 1800 c0 -5 5 -10 11 -10 5 0 7 5 4 10 -3 6 -8 10 -11 10 -2 0
-4 -4 -4 -10z"/>
<path d="M1375 1778 c-4 -10 -5 -23 -2 -30 4 -8 6 -7 6 4 1 11 6 15 15 12 8
-3 17 0 22 7 5 8 3 10 -6 4 -7 -4 -16 -2 -21 6 -6 11 -9 10 -14 -3z"/>
<path d="M1432 1742 c-11 -25 -11 -25 4 -10 9 9 15 21 13 27 -2 6 -10 -2 -17
-17z"/>
<path d="M1300 1751 c0 -6 4 -13 10 -16 6 -3 7 1 4 9 -7 18 -14 21 -14 7z"/>
<path d="M1074 1615 c0 -71 1 -99 3 -62 2 37 2 96 0 130 -2 34 -3 4 -3 -68z"/>
<path d="M1452 1727 c-8 -10 -5 -16 11 -27 20 -12 21 -12 9 3 -8 9 -11 21 -7
27 9 14 0 13 -13 -3z"/>
<path d="M1654 1560 c0 -102 2 -143 3 -92 2 50 2 134 0 185 -1 50 -3 9 -3 -93z"/>
<path d="M1295 1699 c-4 -11 -4 -23 -1 -26 3 -4 6 2 6 12 0 14 6 16 30 12 38
-8 39 -2 0 11 -25 9 -30 8 -35 -9z"/>
<path d="M1430 1685 c14 -8 20 -14 15 -15 -6 0 -11 -9 -11 -20 0 -25 3 -25 17
2 10 18 8 24 -7 35 -10 7 -23 13 -28 13 -6 -1 0 -7 14 -15z"/>
<path d="M1324 1654 c5 -13 -3 -63 -20 -129 -4 -16 -3 -17 5 -5 10 13 11 13
11 0 0 -13 1 -13 11 0 8 11 9 8 5 -15 -5 -24 -4 -27 4 -12 6 9 8 27 5 38 -5
14 -3 19 4 15 7 -5 8 -1 4 10 -4 12 -3 15 5 10 8 -5 10 -1 5 10 -4 11 -3 15 5
10 6 -3 14 -1 18 5 4 8 3 9 -4 5 -18 -11 -14 5 5 26 15 16 15 21 3 28 -21 13
-26 6 -44 -61 -22 -77 -32 -71 -12 7 8 31 13 61 10 66 -9 15 -26 8 -20 -8z"/>
<path d="M1124 1648 c-4 -6 -3 -8 4 -4 15 9 58 -38 90 -99 18 -34 27 -45 30
-33 2 10 -6 31 -17 47 -12 16 -21 33 -21 39 0 15 -48 62 -64 62 -8 0 -18 -5
-22 -12z"/>
<path d="M1238 1648 c-9 -5 -6 -8 9 -8 12 0 24 4 27 8 7 11 -19 11 -36 0z"/>
<path d="M1466 1651 c-3 -5 0 -9 7 -8 49 2 52 -1 49 -50 -3 -36 -10 -53 -27
-68 l-24 -20 40 1 c37 1 71 14 37 14 -12 0 -14 10 -10 53 5 59 24 89 44 69 9
-9 10 -17 2 -30 -14 -22 -6 -92 11 -92 14 0 9 47 -7 67 -5 7 -5 14 2 18 15 9
12 45 -5 51 -8 4 -22 1 -29 -6 -11 -8 -20 -8 -35 -1 -24 13 -48 14 -55 2z"/>
<path d="M1302 1625 c0 -16 2 -22 5 -12 2 9 2 23 0 30 -3 6 -5 -1 -5 -18z"/>
<path d="M1488 1600 c-20 -22 -23 -35 -8 -25 6 4 10 -6 10 -21 0 -20 3 -25 11
-17 6 6 9 27 7 47 -3 36 -3 37 -20 16z"/>
<path d="M1130 1581 c0 -5 9 -11 19 -14 14 -3 18 -1 14 9 -6 15 -33 19 -33 5z"/>
<path d="M1292 1570 c0 -14 2 -19 5 -12 2 6 2 18 0 25 -3 6 -5 1 -5 -13z"/>
<path d="M1271 1499 c-7 -23 -15 -48 -18 -58 -4 -14 -3 -14 6 -1 9 13 11 13
11 0 0 -13 1 -13 10 0 5 8 10 20 10 25 0 6 -5 3 -10 -5 -13 -20 -13 0 1 39 6
18 9 34 7 37 -3 2 -10 -14 -17 -37z"/>
<path d="M1119 1503 c-13 -16 -12 -17 3 -5 9 8 26 11 37 7 10 -3 22 -1 26 5
11 18 -52 11 -66 -7z"/>
<path d="M1682 1500 c0 -14 2 -19 5 -12 2 6 2 18 0 25 -3 6 -5 1 -5 -13z"/>
<path d="M1673 1385 c0 -38 2 -53 4 -32 2 20 2 52 0 70 -2 17 -4 1 -4 -38z"/>
<path d="M1275 1388 c-10 -29 -24 -59 -33 -65 -17 -14 -4 -18 13 -5 11 8 47
113 41 120 -2 2 -12 -21 -21 -50z"/>
<path d="M1250 1381 c0 -7 -3 -10 -7 -8 -5 3 -17 0 -28 -4 -18 -9 -18 -9 3 -5
13 2 22 -1 22 -8 0 -6 -12 -13 -27 -14 -14 -1 -29 -4 -32 -7 -3 -3 10 -4 28
-3 25 2 36 9 42 27 5 13 7 26 4 29 -3 3 -5 0 -5 -7z"/>
<path d="M1393 1369 c-38 -24 -44 -36 -10 -18 12 7 33 18 47 26 14 7 18 13 10
13 -8 0 -30 -10 -47 -21z"/>
<path d="M1468 1373 c7 -3 16 -2 19 1 4 3 -2 6 -13 5 -11 0 -14 -3 -6 -6z"/>
<path d="M845 1304 c-93 -76 -165 -144 -165 -157 0 -16 53 2 178 63 l123 60
-26 50 c-14 27 -26 50 -28 49 -1 0 -38 -29 -82 -65z"/>
<path d="M1322 1354 c10 -10 20 -16 22 -13 3 3 -5 11 -17 18 -21 13 -21 12 -5
-5z"/>
<path d="M1143 1353 c9 -2 23 -2 30 0 6 3 -1 5 -18 5 -16 0 -22 -2 -12 -5z"/>
<path d="M1392 1334 c-41 -26 -43 -26 -70 -8 -23 15 -25 15 -14 1 24 -29 49
-29 91 -1 23 15 41 28 41 30 0 6 -2 5 -48 -22z"/>
<path d="M1756 1314 l-25 -45 122 -59 c218 -106 239 -91 68 46 -144 116 -134
113 -165 58z"/>
<path d="M1458 1343 c6 -2 18 -2 25 0 6 3 1 5 -13 5 -14 0 -19 -2 -12 -5z"/>
<path d="M1508 1333 c6 -2 18 -2 25 0 6 3 1 5 -13 5 -14 0 -19 -2 -12 -5z"/>
<path d="M1123 1323 c9 -2 23 -2 30 0 6 3 -1 5 -18 5 -16 0 -22 -2 -12 -5z"/>
<path d="M1558 1323 c6 -2 18 -2 25 0 6 3 1 5 -13 5 -14 0 -19 -2 -12 -5z"/>
<path d="M1417 1301 c-3 -12 -16 -21 -33 -24 -28 -4 -28 -4 4 -6 17 0 32 2 32
7 1 29 17 32 94 17 43 -8 87 -14 99 -14 21 1 -67 21 -149 34 -36 5 -42 3 -47
-14z"/>
<path d="M1608 1313 c7 -3 16 -2 19 1 4 3 -2 6 -13 5 -11 0 -14 -3 -6 -6z"/>
<path d="M1284 1289 c15 -12 35 -19 48 -16 21 4 20 4 -3 6 -15 0 -32 8 -39 16
-7 8 -17 15 -23 15 -5 0 2 -9 17 -21z"/>
<path d="M1658 1273 c7 -3 16 -2 19 1 4 3 -2 6 -13 5 -11 0 -14 -3 -6 -6z"/>
<path d="M1229 1262 c11 -8 11 -10 0 -15 -10 -4 -8 -6 4 -6 21 -1 18 21 -4 27
-12 3 -12 2 0 -6z"/>
<path d="M1690 1019 c0 -5 -4 -8 -8 -5 -4 2 -14 1 -22 -5 -13 -7 -12 -9 2 -9
11 0 15 -5 12 -15 -5 -11 -2 -13 10 -9 9 3 13 10 10 15 -3 6 0 16 6 24 9 11 9
15 1 15 -6 0 -11 -5 -11 -11z"/>
<path d="M917 1075 c-9 -23 11 -28 23 -5 8 16 8 20 -4 20 -7 0 -16 -7 -19 -15z"/>
<path d="M1110 950 c0 -5 5 -10 11 -10 5 0 7 5 4 10 -3 6 -8 10 -11 10 -2 0
-4 -4 -4 -10z"/>
<path d="M1266 933 c-4 -9 -2 -21 4 -27 7 -7 10 -5 10 8 0 11 4 15 13 10 8 -5
8 -2 -2 9 -17 21 -17 21 -25 0z"/>
<path d="M1370 920 c0 -11 5 -20 10 -20 6 0 10 9 10 20 0 11 -4 20 -10 20 -5
0 -10 -9 -10 -20z"/>
<path d="M2304 2119 c10 -64 59 -158 107 -204 29 -28 37 -33 26 -15 -8 14 -23
50 -32 80 -10 30 -33 76 -51 103 -19 26 -34 51 -34 56 0 6 -5 13 -12 17 -8 5
-9 -5 -4 -37z"/>
<path d="M361 2104 c-37 -43 -72 -123 -84 -196 -6 -41 8 -34 51 25 54 71 61
88 67 148 3 28 8 56 11 60 14 23 -8 4 -45 -37z"/>
<path d="M2451 2025 c0 -22 6 -65 14 -95 16 -59 20 -190 7 -190 -14 0 -38 31
-65 85 -24 47 -107 140 -107 120 0 -24 71 -131 130 -199 l65 -74 12 86 c14
101 9 158 -22 227 -12 28 -25 57 -28 65 -3 8 -6 -3 -6 -25z"/>
<path d="M236 2026 c-48 -74 -60 -204 -28 -303 l17 -52 65 74 c73 83 134 185
120 199 -18 18 -76 -42 -120 -123 -25 -44 -49 -79 -55 -77 -19 5 -16 101 5
194 24 103 23 128 -4 88z"/>
<path d="M2561 1670 c-1 -152 -9 -198 -27 -169 -5 8 -22 43 -40 79 -17 36 -39
72 -49 80 -10 8 -27 29 -37 45 l-19 30 7 -40 c10 -60 29 -100 82 -174 27 -36
55 -77 62 -91 l13 -25 14 33 c7 18 10 38 7 44 -4 7 -2 8 4 4 7 -4 12 -1 12 6
1 7 4 38 7 68 10 87 5 151 -16 210 l-20 55 0 -155z"/>
<path d="M124 1773 c-37 -77 -29 -206 20 -316 l21 -49 25 38 c14 22 45 66 68
99 32 45 44 73 47 108 3 26 10 58 16 70 7 14 -3 8 -30 -18 -36 -34 -95 -135
-115 -199 -5 -15 -9 -17 -19 -7 -8 8 -12 57 -11 162 0 82 -1 149 -2 149 -1 0
-10 -17 -20 -37z"/>
<path d="M41 1513 c-18 -81 -11 -155 21 -224 30 -66 99 -162 109 -151 17 19
81 181 84 212 1 19 6 60 10 90 7 49 6 53 -9 41 -28 -23 -65 -114 -76 -186 -26
-167 -67 -86 -119 240 l-7 40 -13 -62z"/>
<path d="M2646 1528 c-8 -18 -19 -67 -26 -108 -6 -41 -21 -106 -33 -143 -29
-91 -48 -88 -64 11 -7 40 -25 101 -42 135 -16 34 -32 69 -34 77 -3 8 -6 -13
-6 -47 -1 -44 6 -82 23 -125 42 -110 87 -201 95 -192 65 77 114 165 104 190
-4 10 -2 15 3 11 7 -4 9 22 6 71 -2 42 -5 94 -6 115 0 20 -2 37 -4 37 -2 0 -9
-15 -16 -32z"/>
<path d="M246 1230 c-23 -54 -33 -177 -18 -219 28 -80 -44 -28 -109 79 -22 36
-56 88 -76 115 l-36 50 6 -52 c11 -97 74 -183 193 -264 76 -51 82 -53 63 -17
-8 15 -8 51 0 132 6 61 7 136 3 166 l-7 55 -19 -45z"/>
<path d="M2436 1235 c-4 -21 -4 -107 0 -191 l7 -153 71 48 c118 80 180 162
178 234 -1 21 3 48 9 60 26 50 -71 -59 -106 -119 -41 -70 -109 -153 -119 -143
-3 3 -1 31 4 63 9 59 4 108 -23 196 l-14 44 -7 -39z"/>
<path d="M340 986 c0 -76 21 -169 51 -229 11 -21 18 -41 15 -45 -3 -3 -32 20
-64 50 -32 31 -85 73 -118 93 -32 20 -74 53 -92 73 l-34 37 33 -63 c61 -119
127 -176 262 -227 l67 -25 -14 22 c-13 21 -24 78 -41 211 -4 27 -20 76 -36
110 l-29 62 0 -69z"/>
<path d="M2344 1015 c-28 -40 -43 -88 -54 -176 -5 -41 -12 -98 -16 -126 -5
-39 -4 -53 5 -53 34 0 166 67 210 106 45 40 100 119 105 148 1 6 5 17 10 24 8
14 -153 -88 -199 -125 -16 -14 -45 -44 -63 -66 -33 -41 -33 -41 -26 -12 4 17
11 33 16 36 5 3 10 21 12 40 2 19 9 64 15 100 7 36 11 81 9 100 l-3 34 -21
-30z"/>
<path d="M460 856 c0 -41 47 -178 78 -227 16 -25 48 -65 71 -89 30 -32 38 -46
29 -52 -7 -4 -17 -8 -21 -8 -19 0 -82 33 -161 85 -47 31 -100 61 -118 67 -18
6 -46 22 -62 37 l-28 26 21 -43 c50 -100 134 -163 247 -187 64 -14 194 -21
194 -11 0 3 -14 25 -30 49 -17 25 -56 101 -89 168 -32 68 -70 135 -85 148 -14
14 -26 30 -26 37 0 7 -4 16 -10 19 -6 3 -10 -5 -10 -19z"/>
<path d="M2203 828 c-26 -27 -59 -80 -86 -140 -25 -53 -61 -124 -81 -158 -20
-33 -36 -65 -36 -71 0 -14 126 -11 204 6 77 16 137 48 182 97 35 37 72 94 55
84 -15 -10 -14 7 2 24 10 12 9 12 -3 3 -8 -6 -33 -16 -55 -23 -22 -7 -85 -42
-140 -77 -55 -35 -112 -67 -128 -70 -15 -3 -30 -10 -33 -14 -8 -14 -24 -11
-24 5 0 7 8 16 19 19 40 10 152 181 136 207 -3 6 -2 10 4 10 6 0 7 7 4 17 -5
12 -3 14 7 8 9 -6 12 -4 8 6 -3 8 -2 36 2 62 4 26 6 47 5 47 0 0 -19 -19 -42
-42z"/>
<path d="M640 665 c0 -26 126 -179 185 -224 24 -18 27 -24 15 -32 -18 -12
-317 -1 -343 13 -16 8 -17 7 -8 -10 19 -35 62 -62 134 -83 97 -30 171 -23 277
26 l80 38 -30 15 c-17 8 -63 51 -103 95 -61 67 -101 100 -194 160 -7 4 -13 5
-13 2z"/>
<path d="M2001 635 c-37 -17 -77 -50 -130 -106 -42 -45 -91 -92 -110 -105
l-35 -23 88 -42 c60 -29 106 -44 143 -47 62 -5 150 11 203 38 39 20 76 56 63
62 -4 3 -84 -1 -178 -7 -93 -7 -173 -10 -177 -8 -16 8 -7 20 42 57 57 43 144
155 146 186 1 11 1 20 0 20 0 0 -25 -11 -55 -25z"/>
<path d="M1215 460 c-72 -15 -138 -45 -245 -112 -117 -72 -154 -88 -214 -88
-37 -1 -39 -2 -22 -15 27 -21 112 -28 191 -15 88 13 173 55 250 121 136 117
199 116 363 -8 141 -105 259 -140 387 -113 51 11 56 14 35 20 -14 4 -35 5 -47
3 -16 -4 -73 22 -180 80 -87 47 -179 91 -205 98 -26 6 -45 15 -43 20 6 9 3 9
-130 14 -55 2 -118 0 -140 -5z"/>
</g>
</svg>
